<?xml version="1.0" encoding="utf-8"?>
<!-- Generator: Adobe Illustrator 18.1.1, SVG Export Plug-In . SVG Version: 6.00 Build 0)  -->
<svg version="1.1" id="Layer_1" xmlns="http://www.w3.org/2000/svg" xmlns:xlink="http://www.w3.org/1999/xlink" x="0px" y="0px"
	 viewBox="82 272 250 250" enable-background="new 82 272 250 250" xml:space="preserve">
<path id="pinterest-circle-icon" fill="#666666" d="M207.4,276c-66.8,0-121,54.2-121,121s54.2,121,121,121s121-54.2,121-121
	S274.2,276,207.4,276z M223.3,436.8c-9.5,0-18.3-5.1-21.4-10.9c0,0-5.1,20.2-6.2,24.1c-3.8,13.8-14.9,27.5-15.8,28.7
	c-0.6,0.8-1.9,0.5-2.1-0.5c-0.2-1.8-3.1-19.1,0.3-33.3c1.7-7.1,11.3-47.7,11.3-47.7s-2.8-5.6-2.8-13.9c0-13,7.5-22.7,16.9-22.7
	c8,0,11.8,6,11.8,13.1c0,8-5.1,20-7.7,31.1c-2.2,9.3,4.7,16.9,13.8,16.9c16.6,0,27.8-21.3,27.8-46.6c0-19.2-12.9-33.6-36.4-33.6
	c-26.6,0-43.1,19.8-43.1,41.9c0,7.6,2.3,13,5.8,17.2c1.6,1.9,1.8,2.7,1.3,4.9c-0.4,1.6-1.4,5.5-1.8,7c-0.6,2.2-2.4,3-4.4,2.2
	c-12.2-5-17.9-18.4-17.9-33.5c0-24.9,21-54.7,62.6-54.7c33.4,0,55.4,24.2,55.4,50.2C270.5,411.2,251.4,436.8,223.3,436.8z"/>
</svg>
