<?xml version="1.0" encoding="utf-8"?>
<!-- Generator: Adobe Illustrator 18.1.1, SVG Export Plug-In . SVG Version: 6.00 Build 0)  -->
<svg version="1.1" id="Layer_1" xmlns="http://www.w3.org/2000/svg" xmlns:xlink="http://www.w3.org/1999/xlink" x="0px" y="0px"
	 viewBox="82 272 250 250" enable-background="new 82 272 250 250" xml:space="preserve">
<path id="twitter-4-icon" fill="#666666" d="M207,275c-67.4,0-122,54.6-122,122s54.6,122,122,122s122-54.6,122-122
	S274.4,275,207,275z M268.4,376c1.8,39.8-27.9,84.2-80.4,84.2c-16,0-30.9-4.7-43.4-12.7c15,1.8,30-2.4,41.9-11.7
	c-12.4-0.2-22.8-8.4-26.4-19.7c4.4,0.8,8.8,0.6,12.8-0.5c-13.6-2.7-23-15-22.7-28.1c3.8,2.1,8.2,3.4,12.8,3.5
	c-12.6-8.4-16.2-25.1-8.8-37.8c14,17.1,34.8,28.4,58.3,29.6c-4.1-17.7,9.3-34.7,27.6-34.7c8.1,0,15.5,3.4,20.7,8.9
	c6.4-1.3,12.5-3.6,18-6.9c-2.1,6.6-6.6,12.2-12.4,15.7c5.7-0.7,11.2-2.2,16.3-4.5C278.7,367,273.9,372,268.4,376z"/>
</svg>
