<?xml version="1.0" encoding="utf-8"?>
<!-- Generator: Adobe Illustrator 19.1.0, SVG Export Plug-In . SVG Version: 6.00 Build 0)  -->
<svg version="1.1" id="Layer_1" xmlns="http://www.w3.org/2000/svg" xmlns:xlink="http://www.w3.org/1999/xlink" x="0px" y="0px"
	 viewBox="-289 381 32 32" style="enable-background:new -289 381 32 32;" xml:space="preserve">
<style type="text/css">
	.st0{fill:#FFFFFF;}
	.st1{fill:#E5E5E5;}
	.st2{fill:#0BA4E0;}
</style>
<g id="Style_3_copy">
	<g>
		<g>
			<path class="st0" d="M-273,412.6c-8.6,0-15.6-7-15.6-15.6s7-15.6,15.6-15.6s15.6,7,15.6,15.6S-264.4,412.6-273,412.6z"/>
			<path class="st1" d="M-273,381.8c8.4,0,15.2,6.8,15.2,15.2s-6.8,15.2-15.2,15.2s-15.2-6.8-15.2-15.2S-281.4,381.8-273,381.8
				 M-273,381c-8.8,0-16,7.2-16,16c0,8.8,7.2,16,16,16s16-7.2,16-16C-257,388.2-264.2,381-273,381L-273,381z"/>
		</g>
	</g>
	<path class="st2" d="M-265,393.5c0,4.7-2.6,8.1-6.4,8.1c-1.3,0-2.5-0.7-2.9-1.5c0,0-0.7,2.7-0.8,3.3c-0.5,1.9-2,3.7-2.1,3.9
		c-0.1,0.1-0.3,0.1-0.3-0.1c0-0.2-0.4-2.6,0-4.5c0.2-1,1.5-6.5,1.5-6.5s-0.4-0.8-0.4-1.9c0-1.8,1-3.1,2.3-3.1c1.1,0,1.6,0.8,1.6,1.8
		c0,1.1-0.7,2.7-1,4.2c-0.3,1.3,0.6,2.3,1.9,2.3c2.2,0,3.8-2.9,3.8-6.3c0-2.6-1.8-4.6-4.9-4.6c-3.6,0-5.8,2.7-5.8,5.7
		c0,1,0.3,1.8,0.8,2.3c0.2,0.3,0.2,0.4,0.2,0.7c-0.1,0.2-0.2,0.7-0.2,1c-0.1,0.3-0.3,0.4-0.6,0.3c-1.7-0.7-2.4-2.5-2.4-4.5
		c0-3.4,2.8-7.4,8.5-7.4C-268,386.7-265,389.9-265,393.5z"/>
</g>
</svg>
