<?xml version="1.0" encoding="utf-8"?>
<!-- Generator: Adobe Illustrator 18.1.1, SVG Export Plug-In . SVG Version: 6.00 Build 0)  -->
<svg version="1.1" id="Layer_1" xmlns="http://www.w3.org/2000/svg" xmlns:xlink="http://www.w3.org/1999/xlink" x="0px" y="0px"
	 viewBox="82 272 250 250" enable-background="new 82 272 250 250" xml:space="preserve">
<path id="tumblr-circle-icon" fill="#666666" d="M207.4,275.3c-67.2,0-121.7,54.5-121.7,121.7s54.5,121.7,121.7,121.7
	S329.1,464.2,329.1,397S274.6,275.3,207.4,275.3z M254.5,463.1c-6.2,2.9-11.9,5-16.9,6.2c-5,1.2-10.5,1.8-16.4,1.8
	c-6.7,0-12.5-0.8-17.6-2.5c-5.1-1.7-9.5-4.1-13.1-7.2c-3.6-3.1-6.1-6.4-7.5-9.9c-1.4-3.5-2.1-8.6-2.1-15.2v-51H165v-20.7
	c5.7-1.9,10.6-4.5,14.6-8c4.1-3.5,7.3-7.6,9.8-12.5c2.5-4.9,4.2-11,5.1-18.5h20.6v36.9h34.6v22.9h-34.6v37.4
	c0,8.4,0.4,13.9,1.3,16.3c0.9,2.4,2.6,4.3,5,5.7c3.2,1.9,6.9,2.9,11.1,2.9c7.4,0,14.7-2.4,22-7.2L254.5,463.1L254.5,463.1z"/>
</svg>
