<?xml version="1.0" encoding="utf-8"?>
<!-- Generator: Adobe Illustrator 18.1.1, SVG Export Plug-In . SVG Version: 6.00 Build 0)  -->
<svg version="1.1" id="Layer_1" xmlns="http://www.w3.org/2000/svg" xmlns:xlink="http://www.w3.org/1999/xlink" x="0px" y="0px"
	 viewBox="82 272 250 250" enable-background="new 82 272 250 250" xml:space="preserve">
<path id="rss-circle-icon" fill="#666666" d="M207,276c-66.8,0-121,54.2-121,121s54.2,121,121,121s121-54.2,121-121
	S273.8,276,207,276z M167.8,456.1c-9.6,0-17.4-7.8-17.4-17.4c0-9.6,7.8-17.4,17.4-17.4c9.6,0,17.4,7.8,17.4,17.4
	C185.2,448.3,177.4,456.1,167.8,456.1z M209.4,456.1c-0.3-32.4-26.6-58.7-59.1-59.1v-25.8c46.7,0.3,84.5,38.1,84.9,84.9L209.4,456.1
	L209.4,456.1z M253.1,456.1c-0.1-27.5-10.8-53.3-30.2-72.7c-19.4-19.4-45.1-30.1-72.5-30.2v-25.8c71,0.2,128.4,57.8,128.6,128.7
	L253.1,456.1L253.1,456.1z"/>
</svg>
