<?xml version="1.0" encoding="utf-8"?>
<!-- Generator: Adobe Illustrator 19.1.0, SVG Export Plug-In . SVG Version: 6.00 Build 0)  -->
<svg version="1.1" id="Layer_1" xmlns="http://www.w3.org/2000/svg" xmlns:xlink="http://www.w3.org/1999/xlink" x="0px" y="0px"
	 viewBox="-289 381 32 32" style="enable-background:new -289 381 32 32;" xml:space="preserve">
<style type="text/css">
	.st0{fill:#FFFFFF;}
	.st1{fill:#E5E5E5;}
	.st2{fill:#0BA4E0;}
</style>
<g id="Style_3_copy">
	<g>
		<g>
			<path class="st0" d="M-273,412.6c-8.6,0-15.6-7-15.6-15.6s7-15.6,15.6-15.6c8.6,0,15.6,7,15.6,15.6S-264.4,412.6-273,412.6z"/>
			<path class="st1" d="M-273,381.7c8.4,0,15.2,6.8,15.2,15.2s-6.8,15.2-15.2,15.2s-15.2-6.8-15.2-15.2S-281.4,381.7-273,381.7
				 M-273,381c-8.8,0-16,7.2-16,16c0,8.8,7.2,16,16,16s16-7.2,16-16C-257,388.2-264.2,381-273,381L-273,381z"/>
		</g>
	</g>
	<g>
		<path class="st2" d="M-267.9,400.6c-0.1,0-0.2,0-0.3,0.1c-0.1,0.1-0.1,0.2-0.1,0.4v0.5h0.8v-0.5c0-0.2,0-0.3-0.1-0.4
			C-267.6,400.6-267.7,400.6-267.9,400.6z"/>
		<path class="st2" d="M-271,400.6c-0.1,0-0.1,0-0.2,0c-0.1,0-0.1,0.1-0.2,0.1v2.9c0.1,0.1,0.1,0.1,0.2,0.2c0.1,0,0.1,0.1,0.2,0.1
			c0.1,0,0.2,0,0.2-0.1c0.1-0.1,0.1-0.2,0.1-0.3V401c0-0.2,0-0.3-0.1-0.4C-270.8,400.6-270.9,400.6-271,400.6z"/>
		<path class="st2" d="M-265.9,397c-0.8-0.8-7.1-0.8-7.1-0.8c0,0-6.3,0-7.1,0.8c-0.8,0.8-0.8,4.5-0.8,4.5c0,0,0,3.7,0.8,4.5
			c0.8,0.8,7.1,0.8,7.1,0.8s6.3,0,7.1-0.8c0.8-0.8,0.8-4.5,0.8-4.5C-265.2,401.4-265.2,397.7-265.9,397z M-276,399.1h-1.1v5.4h-1
			v-5.4h-1.1v-0.9h3.2L-276,399.1L-276,399.1z M-273,404.5h-0.9V404c-0.2,0.2-0.3,0.3-0.5,0.4c-0.2,0.1-0.4,0.1-0.5,0.1
			c-0.2,0-0.4-0.1-0.5-0.2c-0.1-0.1-0.2-0.3-0.2-0.6v-3.9h0.9v3.6c0,0.1,0,0.2,0.1,0.2c0,0.1,0.1,0.1,0.2,0.1c0.1,0,0.2,0,0.3-0.1
			c0.1-0.1,0.2-0.1,0.3-0.2v-3.5h0.9V404.5z M-269.7,403.6c0,0.3-0.1,0.6-0.2,0.8c-0.1,0.2-0.4,0.3-0.6,0.3c-0.2,0-0.3,0-0.5-0.1
			c-0.1-0.1-0.3-0.2-0.4-0.3v0.4h-0.9v-6.3h0.9v2c0.1-0.1,0.3-0.3,0.4-0.3c0.1-0.1,0.3-0.1,0.4-0.1c0.3,0,0.5,0.1,0.7,0.3
			c0.2,0.2,0.2,0.5,0.2,0.9V403.6z M-266.5,402.3h-1.7v0.9c0,0.2,0,0.4,0.1,0.5c0.1,0.1,0.2,0.1,0.3,0.1c0.2,0,0.3,0,0.3-0.1
			c0.1-0.1,0.1-0.3,0.1-0.5V403h0.9v0.2c0,0.5-0.1,0.8-0.3,1.1c-0.2,0.2-0.6,0.4-1,0.4c-0.4,0-0.7-0.1-1-0.4
			c-0.2-0.3-0.4-0.6-0.4-1.1v-2.1c0-0.4,0.1-0.7,0.4-1c0.3-0.3,0.6-0.4,1-0.4c0.4,0,0.7,0.1,1,0.4c0.2,0.2,0.3,0.6,0.3,1
			L-266.5,402.3L-266.5,402.3z"/>
	</g>
	<path class="st2" d="M-267.9,394.3h-1v-0.6c-0.2,0.2-0.4,0.4-0.6,0.5c-0.2,0.1-0.4,0.2-0.6,0.2c-0.2,0-0.4-0.1-0.5-0.2
		c-0.1-0.2-0.2-0.4-0.2-0.7v-4.3h1v3.9c0,0.1,0,0.2,0.1,0.3c0,0.1,0.1,0.1,0.2,0.1c0.1,0,0.2,0,0.3-0.1c0.1-0.1,0.2-0.2,0.3-0.3
		v-3.9h1V394.3L-267.9,394.3z"/>
	<path class="st2" d="M-272,389.4c-0.3-0.2-0.6-0.4-1-0.4c-0.5,0-0.8,0.1-1.1,0.4c-0.3,0.2-0.4,0.6-0.4,0.9v2.7c0,0.4,0.1,0.8,0.4,1
		c0.3,0.3,0.6,0.4,1.1,0.4c0.5,0,0.8-0.1,1.1-0.4c0.3-0.2,0.4-0.6,0.4-1v-2.6C-271.6,389.9-271.8,389.6-272,389.4z M-272.7,393.1
		c0,0.1,0,0.2-0.1,0.3c-0.1,0.1-0.2,0.1-0.3,0.1c-0.1,0-0.2,0-0.3-0.1c-0.1-0.1-0.1-0.2-0.1-0.3v-2.8c0-0.1,0-0.2,0.1-0.3
		c0.1-0.1,0.2-0.1,0.3-0.1c0.1,0,0.2,0,0.3,0.1c0.1,0.1,0.1,0.2,0.1,0.3V393.1z"/>
	<polygon class="st2" points="-277.4,387.3 -278.6,387.3 -277.2,391.5 -277.2,394.3 -276,394.3 -276,391.4 -274.7,387.3 
		-275.9,387.3 -276.6,390.1 -276.7,390.1 	"/>
</g>
</svg>
