<?xml version="1.0" encoding="utf-8"?>
<!-- Generator: Adobe Illustrator 18.1.1, SVG Export Plug-In . SVG Version: 6.00 Build 0)  -->
<svg version="1.1" id="Layer_1" xmlns="http://www.w3.org/2000/svg" xmlns:xlink="http://www.w3.org/1999/xlink" x="0px" y="0px"
	 viewBox="82 272 250 250" enable-background="new 82 272 250 250" xml:space="preserve">
<path id="facebook-circle-icon" fill="#666666" d="M207.4,275c-67.4,0-122,54.6-122,122s54.6,122,122,122s122-54.6,122-122
	S274.8,275,207.4,275z M243.5,346.8c0,0-12.2,0-17,0c-6,0-7.3,2.5-7.3,8.7c0,5.2,0,15,0,15h24.3l-2.3,26.4h-22v78.9h-31.5v-78.6
	h-16.4v-26.7h16.4c0,0,0-3.8,0-21.1c0-19.8,10.6-30.1,34-30.1c3.8,0,21.8,0,21.8,0L243.5,346.8L243.5,346.8L243.5,346.8z"/>
</svg>
