<?xml version="1.0" encoding="utf-8"?>
<!-- Generator: Adobe Illustrator 19.1.0, SVG Export Plug-In . SVG Version: 6.00 Build 0)  -->
<svg version="1.1" id="Layer_1" xmlns="http://www.w3.org/2000/svg" xmlns:xlink="http://www.w3.org/1999/xlink" x="0px" y="0px"
	 viewBox="-289 381 32 32" style="enable-background:new -289 381 32 32;" xml:space="preserve">
<style type="text/css">
	.st0{fill:#FFFFFF;}
	.st1{fill:#E5E5E5;}
	.st2{fill:#0BA4E0;}
</style>
<g id="Style_3_copy">
	<g>
		<g>
			<path class="st0" d="M-273,412.6c-8.6,0-15.6-7-15.6-15.6s7-15.6,15.6-15.6c8.6,0,15.6,7,15.6,15.6S-264.4,412.6-273,412.6z"/>
			<path class="st1" d="M-273,381.8c8.4,0,15.2,6.8,15.2,15.2s-6.8,15.2-15.2,15.2s-15.2-6.8-15.2-15.2S-281.4,381.8-273,381.8
				 M-273,381c-8.8,0-16,7.2-16,16c0,8.8,7.2,16,16,16s16-7.2,16-16C-257,388.2-264.2,381-273,381L-273,381z"/>
		</g>
	</g>
	<path class="st2" d="M-270.8,389.9c-1.6,0.6-2.6,2.1-2.5,3.7l0,0.6l-0.6-0.1c-2.3-0.3-4.3-1.3-6.1-3l-0.8-0.8l-0.2,0.6
		c-0.5,1.4-0.2,2.8,0.8,3.8c0.5,0.5,0.4,0.6-0.5,0.3c-0.3-0.1-0.6-0.2-0.6-0.1c-0.1,0.1,0.2,1.3,0.5,1.7c0.3,0.6,1,1.3,1.7,1.6
		l0.6,0.3l-0.7,0c-0.7,0-0.7,0-0.7,0.3c0.3,0.8,1.3,1.7,2.4,2.1l0.8,0.3l-0.7,0.4c-1,0.6-2.2,0.9-3.4,1c-0.6,0-1,0.1-1,0.1
		c0,0.1,1.6,0.8,2.5,1.1c2.7,0.8,5.9,0.5,8.3-1c1.7-1,3.4-3,4.2-5c0.4-1,0.9-2.9,0.9-3.9c0-0.6,0-0.7,0.8-1.4c0.4-0.4,0.8-0.9,0.9-1
		c0.1-0.2,0.1-0.2-0.5,0c-1.1,0.4-1.2,0.3-0.7-0.2c0.4-0.4,0.9-1.2,0.9-1.4c0,0-0.2,0-0.4,0.1c-0.2,0.1-0.7,0.3-1.1,0.4l-0.7,0.2
		l-0.6-0.4c-0.3-0.2-0.8-0.5-1.1-0.6C-269.2,389.7-270.2,389.7-270.8,389.9z"/>
</g>
</svg>
