<?xml version="1.0" encoding="utf-8"?>
<!-- Generator: Adobe Illustrator 19.1.0, SVG Export Plug-In . SVG Version: 6.00 Build 0)  -->
<svg version="1.1" id="Layer_1" xmlns="http://www.w3.org/2000/svg" xmlns:xlink="http://www.w3.org/1999/xlink" x="0px" y="0px"
	 viewBox="-289 381 32 32" style="enable-background:new -289 381 32 32;" xml:space="preserve">
<style type="text/css">
	.st0{fill:#FFFFFF;}
	.st1{fill:#E5E5E5;}
	.st2{fill:#0BA4E0;}
</style>
<g id="Style_3_copy">
	<g>
		<g>
			<path class="st0" d="M-273,412.6c-8.6,0-15.6-7-15.6-15.6c0-8.6,7-15.6,15.6-15.6c8.6,0,15.6,7,15.6,15.6
				C-257.4,405.6-264.4,412.6-273,412.6z"/>
			<path class="st1" d="M-273,381.8c8.4,0,15.2,6.8,15.2,15.2s-6.8,15.2-15.2,15.2s-15.2-6.8-15.2-15.2S-281.4,381.8-273,381.8
				 M-273,381c-8.8,0-16,7.2-16,16c0,8.8,7.2,16,16,16s16-7.2,16-16C-257,388.2-264.2,381-273,381L-273,381z"/>
		</g>
	</g>
	<path class="st2" d="M-275.3,405.9h3.7V397h2.5l0.3-3.1h-2.8l0-1.5c0-0.8,0.1-1.2,1.2-1.2h1.5v-3.1h-2.5c-2.9,0-4,1.5-4,4v1.8h-1.8
		v3.1h1.8C-275.3,397-275.3,405.9-275.3,405.9z"/>
</g>
</svg>
