<?xml version="1.0" encoding="utf-8"?>
<!-- Generator: Adobe Illustrator 19.1.0, SVG Export Plug-In . SVG Version: 6.00 Build 0)  -->
<svg version="1.1" id="Layer_1" xmlns="http://www.w3.org/2000/svg" xmlns:xlink="http://www.w3.org/1999/xlink" x="0px" y="0px"
	 viewBox="-289 381 32 32" style="enable-background:new -289 381 32 32;" xml:space="preserve">
<style type="text/css">
	.st0{fill:#FFFFFF;}
	.st1{fill:#E5E5E5;}
	.st2{fill:#0BA4E0;}
</style>
<g id="Style_3_copy">
	<g>
		<g>
			<path class="st0" d="M-273,412.6c-8.6,0-15.6-7-15.6-15.6s7-15.6,15.6-15.6s15.6,7,15.6,15.6S-264.4,412.6-273,412.6z"/>
			<path class="st1" d="M-273,381.7c8.4,0,15.2,6.8,15.2,15.2s-6.8,15.2-15.2,15.2s-15.2-6.8-15.2-15.2S-281.4,381.7-273,381.7
				 M-273,381c-8.8,0-16,7.2-16,16c0,8.8,7.2,16,16,16s16-7.2,16-16C-257,388.2-264.2,381-273,381L-273,381z"/>
		</g>
	</g>
	<path class="st2" d="M-272.8,387.6v4.4h4.4v2.8h-4.4v4.4c0,1,0.1,1.8,0.2,2.1c0.1,0.3,0.3,0.5,0.6,0.7c0.4,0.2,0.8,0.4,1.3,0.4
		c0.9,0,1.9-0.3,2.8-1v2.8c-0.7,0.5-1.6,0.7-2.2,0.9c-0.6,0.1-1.3,0.2-2,0.2c-0.7,0-1.5-0.1-2.1-0.3c-0.6-0.2-1-0.4-1.4-0.8
		c-0.4-0.4-0.7-0.8-0.8-1.2c-0.2-0.4-0.3-1.3-0.3-2.1v-6.1h-2.2V392c0.7-0.1,1.3-0.3,1.8-0.7c0.5-0.4,0.9-0.9,1.2-1.5
		c0.3-0.6,0.3-1.3,0.3-2.2C-275.6,387.6-272.8,387.6-272.8,387.6z"/>
</g>
</svg>
